<svg width="100" height="26" viewBox="0 0 100 26" fill="none" xmlns="http://www.w3.org/2000/svg">
<g clip-path="url(#clip0_47_552)">
<path d="M31.5262 20.2821L32.7467 17.4296C34.0829 18.4192 35.8258 18.9429 37.5692 18.9429C38.8475 18.9429 39.6608 18.4483 39.6608 17.6917C39.6317 15.5958 31.9621 17.2258 31.9037 11.9567C31.8746 9.27875 34.2571 7.21208 37.6275 7.21208C39.6317 7.21208 41.6367 7.70708 43.06 8.8425L41.9196 11.7558C40.61 10.9137 38.9925 10.3267 37.4529 10.3267C36.4071 10.3267 35.7096 10.8212 35.7096 11.4621C35.7387 13.5287 43.4671 12.3933 43.5542 17.4296C43.5542 20.1658 41.2296 22.0871 37.9175 22.0871C35.4775 22.0871 33.2404 21.505 31.5258 20.2821M80.1212 16.3967C79.8132 16.944 79.3651 17.3996 78.8229 17.7166C78.2807 18.0337 77.6639 18.2008 77.0358 18.2008C75.0783 18.2008 73.4917 16.6108 73.4917 14.6496C73.4917 12.6883 75.0783 11.0983 77.0358 11.0983C77.6639 11.0984 78.2807 11.2655 78.8229 11.5825C79.3651 11.8996 79.8132 12.3551 80.1212 12.9025L83.5142 11.0192C82.2433 8.74792 79.8192 7.21208 77.0358 7.21208C72.9362 7.21208 69.6129 10.5417 69.6129 14.6496C69.6129 18.7571 72.9362 22.0871 77.0358 22.0871C79.8192 22.0871 82.2433 20.5512 83.5142 18.28L80.1212 16.3967ZM45.7558 21.7958H49.9975V1.02083H45.7562L45.7558 21.7958ZM85.6562 1.02083V21.7958H89.8979V15.5717L94.9242 21.7958H100.346L93.9542 14.4017L99.8808 7.50208H94.6917L89.8979 13.2383V1.02083H85.6562ZM63.0654 7.50292V9.19167C62.3683 8.02708 60.6542 7.21208 58.8529 7.21208C55.1342 7.21208 52.2 10.5017 52.2 14.635C52.2 18.7683 55.1342 22.0871 58.8529 22.0871C60.6542 22.0871 62.3683 21.2721 63.0654 20.1075V21.7958H67.3071V7.50292H63.0654ZM63.0654 16.4254C62.4554 17.4442 61.1771 18.2004 59.7537 18.2004C57.7958 18.2004 56.2092 16.6108 56.2092 14.6496C56.2092 12.6883 57.7958 11.0983 59.7537 11.0983C61.1771 11.0983 62.4554 11.8842 63.0654 12.9317V16.4254Z" fill="black"/>
<path d="M9.12583 0.561666C7.75125 0.561666 6.63708 1.67833 6.63708 3.05542C6.63675 3.38257 6.70087 3.70659 6.82576 4.00897C6.95066 4.31135 7.13388 4.58616 7.36499 4.81773C7.59609 5.04929 7.87054 5.23307 8.17266 5.35857C8.47479 5.48408 8.79868 5.54884 9.12583 5.54917H11.615V3.05542C11.6156 2.39466 11.3536 1.76074 10.8868 1.29308C10.42 0.825422 9.78659 0.562329 9.12583 0.561666ZM9.12583 7.21167H2.48875C1.11417 7.21167 0 8.32833 0 9.70583C0 11.0829 1.11417 12.1996 2.48875 12.1996H9.12625C10.5004 12.1996 11.615 11.0829 11.615 9.70583C11.615 8.32833 10.5004 7.21167 9.12583 7.21167Z" fill="#097EFF"/>
<path d="M24.8892 9.70583C24.8892 8.32833 23.7746 7.21167 22.4 7.21167C21.0254 7.21167 19.9113 8.32833 19.9113 9.70583V12.1996H22.4C23.0608 12.1989 23.6942 11.9358 24.161 11.4682C24.6278 11.0005 24.8897 10.3666 24.8892 9.70583ZM18.2521 9.70583V3.05542C18.2526 2.39466 17.9907 1.76074 17.5239 1.29308C17.0571 0.825422 16.4237 0.562329 15.7629 0.561666C14.3883 0.561666 13.2742 1.67833 13.2742 3.05542V9.70542C13.2742 11.0833 14.3883 12.2 15.7629 12.2C16.4237 12.1993 17.0571 11.9362 17.5239 11.4686C17.9907 11.0009 18.2526 10.367 18.2521 9.70625" fill="#097EFF"/>
<path d="M15.7629 25.5C16.4237 25.4993 17.0571 25.2362 17.5239 24.7686C17.9907 24.3009 18.2526 23.667 18.2521 23.0062C18.2526 22.3455 17.9907 21.7116 17.5239 21.2439C17.0571 20.7763 16.4237 20.5132 15.7629 20.5125H13.2742V23.0062C13.2742 24.3833 14.3883 25.5 15.7629 25.5ZM15.7629 18.85H22.4004C23.7746 18.85 24.8892 17.7333 24.8892 16.3558C24.8897 15.6951 24.6278 15.0612 24.161 14.5935C23.6942 14.1258 23.0608 13.8627 22.4 13.8621H15.7629C14.3883 13.8621 13.2742 14.9788 13.2742 16.3558C13.2738 16.683 13.338 17.007 13.4629 17.3094C13.5877 17.6118 13.771 17.8866 14.0021 18.1181C14.2332 18.3497 14.5076 18.5335 14.8098 18.659C15.1119 18.7845 15.4358 18.8493 15.7629 18.8496" fill="#ECB12F"/>
<path d="M1.25576e-06 16.3558C-0.000327214 16.683 0.0637857 17.007 0.188679 17.3094C0.313573 17.6118 0.496801 17.8866 0.727903 18.1181C0.959005 18.3497 1.23345 18.5335 1.53558 18.659C1.83771 18.7845 2.1616 18.8493 2.48875 18.8496C3.14951 18.8489 3.78295 18.5858 4.24975 18.1182C4.71654 17.6505 4.97847 17.0166 4.97792 16.3558V13.8621H2.48875C1.11417 13.8621 1.25576e-06 14.9788 1.25576e-06 16.3558ZM6.63708 16.3558V23.0058C6.63708 24.3833 7.75125 25.5 9.12583 25.5C9.78659 25.4993 10.42 25.2362 10.8868 24.7686C11.3536 24.3009 11.6156 23.667 11.615 23.0062V16.3558C11.6153 16.0286 11.5512 15.7046 11.4263 15.4022C11.3014 15.0998 11.1181 14.8249 10.887 14.5934C10.6558 14.3618 10.3813 14.178 10.0791 14.0526C9.77696 13.9271 9.45303 13.8624 9.12583 13.8621C7.75125 13.8621 6.63708 14.9788 6.63708 16.3558Z" fill="#ECB12F"/>
</g>
<defs>
<clipPath id="clip0_47_552">
<rect width="100" height="25" fill="white" transform="translate(0 0.5)"/>
</clipPath>
</defs>
</svg>
